<?xml version="1.0" standalone="no"?>
<!DOCTYPE svg PUBLIC "-//W3C//DTD SVG 20010904//EN"
 "http://www.w3.org/TR/2001/REC-SVG-20010904/DTD/svg10.dtd">
<svg version="1.0" xmlns="http://www.w3.org/2000/svg"
 width="218.000000pt" height="218.000000pt" viewBox="0 0 218.000000 218.000000"
 preserveAspectRatio="xMidYMid meet">
<metadata>
Created by potrace 1.11, written by Peter Selinger 2001-2013
</metadata>
<g transform="translate(0.000000,218.000000) scale(0.100000,-0.100000)"
fill="#000000" stroke="none">
<path d="M835 2008 c-46 -25 -75 -62 -75 -95 0 -109 200 -105 235 5 9 32 -11
77 -41 91 -31 14 -93 14 -119 -1z"/>
<path d="M1225 2008 c-72 -39 -54 -127 33 -164 104 -44 204 40 141 120 -40 51
-123 72 -174 44z"/>
<path d="M1533 1945 c-82 -58 69 -215 164 -172 40 18 41 64 2 117 -41 55 -127
83 -166 55z"/>
<path d="M1842 1833 c-26 -10 -33 -41 -17 -79 34 -83 145 -120 145 -48 0 63
-80 143 -128 127z"/>
<path d="M107 1636 c-40 -43 -65 -112 -47 -130 17 -16 88 66 96 111 10 55 -9
63 -49 19z"/>
<path d="M2017 1657 c-10 -31 46 -138 80 -151 62 -24 12 117 -54 152 -16 9
-22 9 -26 -1z"/>
<path d="M843 1639 c-34 -10 -82 -60 -84 -87 -5 -60 11 -91 61 -117 33 -17 92
-13 125 9 86 56 59 185 -43 201 -15 2 -41 0 -59 -6z"/>
<path d="M1244 1636 c-70 -31 -86 -110 -34 -169 72 -82 215 -38 212 65 -2 78
-104 137 -178 104z"/>
<path d="M51 1404 c-29 -37 -29 -100 0 -109 44 -14 89 62 66 112 -14 30 -41
29 -66 -3z"/>
<path d="M2059 1409 c-28 -53 35 -143 77 -108 23 19 13 88 -16 111 -29 24 -47
23 -61 -3z"/>
<path d="M865 1200 c-89 -19 -131 -87 -99 -156 49 -103 215 -72 231 42 4 33 1
45 -21 71 -31 37 -70 52 -111 43z"/>
<path d="M1256 1195 c-21 -7 -39 -15 -40 -17 -41 -54 -46 -93 -19 -139 21 -36
69 -59 120 -59 80 0 131 98 87 166 -31 47 -94 67 -148 49z"/>
<path d="M38 1149 c-10 -5 -20 -25 -24 -44 -12 -65 49 -115 77 -63 17 31 13
77 -7 99 -19 22 -23 22 -46 8z"/>
<path d="M2103 1154 c-7 -3 -17 -21 -23 -39 -14 -43 4 -88 37 -93 35 -5 62 62
41 102 -17 32 -31 39 -55 30z"/>
<path d="M29 888 c-20 -37 19 -124 62 -140 43 -17 52 58 15 113 -31 45 -62 55
-77 27z"/>
<path d="M2102 895 c-45 -33 -69 -119 -38 -144 26 -21 78 37 91 101 2 10 -4
27 -13 38 -16 19 -19 20 -40 5z"/>
<path d="M815 751 c-56 -23 -75 -95 -38 -146 46 -61 157 -72 200 -19 26 33 25
94 -3 125 -40 44 -107 61 -159 40z"/>
<path d="M1244 744 c-97 -51 -79 -179 27 -191 110 -13 190 98 126 173 -29 34
-105 43 -153 18z"/>
<path d="M62 668 c-19 -19 -14 -52 14 -94 44 -64 86 -84 99 -45 16 51 -81 171
-113 139z"/>
<path d="M2051 643 c-51 -50 -66 -133 -25 -133 42 0 118 118 98 151 -10 17
-44 9 -73 -18z"/>
<path d="M223 514 c-20 -9 -15 -63 7 -94 11 -16 40 -38 65 -50 42 -20 47 -21
70 -6 27 18 26 46 -3 85 -37 50 -103 80 -139 65z"/>
<path d="M1870 499 c-64 -37 -95 -102 -64 -133 20 -21 29 -20 78 4 65 32 105
107 74 138 -17 17 -48 14 -88 -9z"/>
<path d="M468 410 c-24 -14 -23 -57 2 -97 48 -80 163 -111 184 -50 27 77 -116
190 -186 147z"/>
<path d="M1626 413 c-25 -7 -75 -52 -92 -85 -45 -87 28 -133 117 -74 44 30 66
59 75 102 10 51 -31 75 -100 57z"/>
<path d="M805 348 c-49 -28 -59 -78 -23 -123 51 -65 161 -73 205 -16 57 74
-94 189 -182 139z"/>
<path d="M1254 346 c-81 -35 -100 -127 -33 -161 80 -42 199 18 199 99 0 61
-91 95 -166 62z"/>
</g>
</svg>
