<?xml version="1.0" encoding="utf-8"?>
<!-- Generator: Adobe Illustrator 22.0.1, SVG Export Plug-In . SVG Version: 6.00 Build 0)  -->
<svg version="1.1" id="Layer_1" xmlns="http://www.w3.org/2000/svg" xmlns:xlink="http://www.w3.org/1999/xlink" x="0px" y="0px"
	 viewBox="0 0 20 20" style="enable-background:new 0 0 20 20;" xml:space="preserve">
<style type="text/css">
	.st0{fill:#225CA2;}
</style>
<path class="st0" d="M18.7,0H1.2l-1,19.8h19.6L18.7,0z M10,7.8c-3.3,0-6.3-1.9-7.4-4.7c0-0.1,0-0.1,0-0.2c0-0.1,0.1-0.1,0.2-0.1
	l0.6-0.2c0.1-0.1,0.3,0,0.3,0.1c1,2.4,3.5,4,6.4,4c2.8,0,5.3-1.5,6.3-3.9c0-0.1,0.1-0.1,0.1-0.1c0.1,0,0.1,0,0.2,0l0.6,0.2
	c0.1,0,0.1,0.1,0.1,0.1c0,0.1,0,0.1,0,0.2C16.2,6,13.3,7.8,10,7.8z"/>
</svg>
