<?xml version="1.0" encoding="utf-8"?>
<!-- Generator: Adobe Illustrator 22.0.1, SVG Export Plug-In . SVG Version: 6.00 Build 0)  -->
<svg version="1.1" id="Layer_1" xmlns="http://www.w3.org/2000/svg" xmlns:xlink="http://www.w3.org/1999/xlink" x="0px" y="0px"
	 viewBox="0 0 40 40" style="enable-background:new 0 0 40 40;" xml:space="preserve">
<style type="text/css">
	.st0{fill:#FFFFFF;}
	.st1{fill:#D12E26;}
</style>
<g>
	<g>
		<path class="st0" d="M35.1,16.7c0.6-10.1-7-16.8-15.8-16.2l0,0c-8.3,0-14.8,7.1-15.3,17.3c-1.1,10.8,4,20.5,12.3,20.6l0,0
			C25.1,37.7,34,27.5,35.1,16.7z"/>
	</g>
	<path id="XMLID_148_" class="st1" d="M17.3,29.5h4v-9.9H24l0.3-3.3h-3.1c0,0,0-1.2,0-1.9c0-0.8,0.2-1.1,0.9-1.1c0.6,0,2.1,0,2.1,0
		V9.8c0,0-2.3,0-2.7,0c-2.9,0-4.3,1.3-4.3,3.8c0,2.2,0,2.6,0,2.6h-2.1v3.4h2.1V29.5z"/>
</g>
</svg>
