<svg id="Layer_1" data-name="Layer 1" xmlns="http://www.w3.org/2000/svg" xmlns:xlink="http://www.w3.org/1999/xlink" viewBox="0 0 595.28 810"><defs><style>.cls-1{fill:none;}.cls-2{clip-path:url(#clip-path);}.cls-3{fill:#005ca6;}.cls-4{fill:#e0e6f0;}</style><clipPath id="clip-path"><rect class="cls-1" x="-1.47" y="502" width="597" height="308"/></clipPath></defs><title>FOOTER</title><g class="cls-2"><path class="cls-3" d="M-.88,513.14c52.42,12.41,106.42,26.41,159.42,26.41,147,3,295-32,440.87-4.69L597.87,684.2l-602,.66Z"/><path class="cls-3" d="M-1.55,515.55c37.9,9,75.77,18.57,114.48,23.44s78.09,3.72,116.93,2c78.49-3.55,156.65-13.28,235.27-14,44.75-.43,89.56,2.19,133.61,10.36l-1.83-2.42-1.35,130.83-.19,18.51,2.5-2.5-60.2.06-143.49.16-174,.2-150.36.16-49.42.06H5c-2.5,0-5.65-.51-8.11,0a5.26,5.26,0,0,1-1,0l2.5,2.5L-.53,627l1.74-92.41.41-21.44c.06-3.22-4.94-3.22-5,0L-4.48,571l-1.74,92.41-.41,21.44a2.53,2.53,0,0,0,2.5,2.5l60.2-.06,143.49-.16,174-.19,150.35-.17,49.42,0c7.8,0,15.73.39,23.52,0,.35,0,.7,0,1,0a2.54,2.54,0,0,0,2.5-2.5l1.35-130.83.19-18.51a2.54,2.54,0,0,0-1.84-2.41c-77-14.27-155.49-11.54-233.21-6-39.24,2.81-78.43,6.27-117.71,8.51-38.83,2.2-78.35,4.07-117.18,1C87.14,532.4,43.39,521.07-.22,510.73-3.35,510-4.68,514.8-1.55,515.55Z"/><path class="cls-4" d="M157.06,662.1c-53.26,0-106-3.43-158.65-19.93V811l598.46,2.84V669.16C450.27,632.87,304.8,666.09,157.06,662.1Z"/></g></svg>