<svg id="Layer_1" data-name="Layer 1" xmlns="http://www.w3.org/2000/svg" xmlns:xlink="http://www.w3.org/1999/xlink" viewBox="0 0 1900 117.66"><defs><style>.cls-1{fill:none;}.cls-2{clip-path:url(#clip-path);}.cls-3{fill:#225ca2;}</style><clipPath id="clip-path"><rect class="cls-1" x="-11.76" y="1.29" width="1915.33" height="125"/></clipPath></defs><title>CURVES2</title><g class="cls-2"><path class="cls-3" d="M-1.44,26.27c166.71,39.48,338.44,84,507,84C973,119.82,1443.71,8.51,1907.61,95.36l-4.89,474.91L-11.76,572.39Z"/><path class="cls-3" d="M-3.55,33.93C117.82,62.7,239.13,93.4,363.11,108.81c123.2,15.3,248.93,11.46,372.69,5.77,124.73-5.74,249.16-16.3,373.64-25.71,124.81-9.43,249.82-17.75,375-18.8,125.36-1,251.08,5.21,375,25q23.07,3.69,46,8l-5.83-7.67L1898,255.58l-2.63,255.64-.61,59,8-7.95-51.08.06-139.63.15-205.85.23-252,.28-275.09.3-277.65.31-258.89.29-218.82.24-157.44.18c-24.69,0-50.19-1.79-74.83.08-1.05.08-2.13,0-3.18,0l8,7.95,3.5-185.26L5.23,94,6.51,26.27C6.7,16-9.2,16-9.39,26.27l-3.5,185.26-5.54,293.12-1.28,67.74a8,8,0,0,0,8,8l51.08-.05L179,580.13l205.86-.23,252-.28,275.09-.3,277.64-.31,258.89-.28,218.82-.25,157.44-.17c24.93,0,49.91.4,74.83-.08,1.06,0,2.12,0,3.18,0a8.07,8.07,0,0,0,8-8l1.65-160.21L1915,154.42l.61-59.06c0-3.23-2.47-7-5.84-7.66-122.5-22.8-247-32.36-371.52-33.52C1413.09,53,1288.07,60,1163.34,69c-124.55,9-249,19.92-373.64,26.92-62.49,3.51-125.05,6-187.64,6.77-61.89.74-124.16.92-185.88-4.23C290.76,88,167.88,58.48,45.77,29.34Q23.22,24,.67,18.6C-9.28,16.24-13.52,31.57-3.55,33.93Z"/></g></svg>