<svg id="Layer_1" data-name="Layer 1" xmlns="http://www.w3.org/2000/svg" viewBox="0 0 1900 736"><defs><style>.cls-1{fill:#1bcec5;}</style></defs><title>CURVES</title><path class="cls-1" d="M70.05,481.49Z"/><path class="cls-1" d="M88.67,482.15a14.85,14.85,0,0,1,2.49-.45H86.67C87.33,481.85,88,482,88.67,482.15Z"/><path class="cls-1" d="M1901,332.16c-9.67-1.41-19.37-2.53-29.07-3.46a144.75,144.75,0,0,0-15.76-1.3c-19.58-1.37-39.21-1.87-58.85-1.67-.29-.06-.59-.09-.88-.16l-1.73.2c-8.24.11-16.49.3-24.73.64-10.82.44-28.65,3.55-34.47-8.8-5.36-11.38,5.49-22.66,14.21-28,10.62-6.55,31.38-11.61,33.54-26.44a15,15,0,0,0-1-8.31l0,0v0a1.49,1.49,0,0,1-.12-.14c-7.53-16.53-47-15.75-58.9-16.43-41.22-2.33-82.52-.23-123.77-1-.32-.11-.64-.18-1-.3l-4.48.2-3.41-.06c-31.09-.88-104.22-3.38-85.24-54.54,5.33-14.37,15.67-23.46,28.44-29.32.44.31,6-1.45,8.54-2.48a41.81,41.81,0,0,1,3.91-2.08c11.9-3.42,25-5,37.78-5.82h.5q3.86,0,7.66,0c.21-.1.4-.22.62-.3s.33-.12.5-.18c9.83-.48,19.23-.73,27.45-1.34,15.84-1.18,32.4-2,48.65-4.21,6.31.11,12.54-.15,18.1-2a90.22,90.22,0,0,0,9.14-3.59A120.68,120.68,0,0,0,1723,120.47c22-12.41,39.75-44.59,13.73-63.23-10.88-7.8-25.1-9.23-38.06-9.9-24.36-1.25-48.89-1.15-73.28-1.52h-1.55c-5.47-.21-10.93-.32-16.3-.43-.35.09-.7.13-1,.21-7.51-.09-15-.19-22.53-.26l-4.47-.56h-52.13l-2.16.27q-12.72,0-25.45,0c0-.1-.12-.18-.17-.28H-2.41V389.22h.17c1.39-.06,2.91-.16,4.5-.27,11-.75,26-1.75,31.47,10,6,12.8-6.47,24.92-14.82,30.07a98.45,98.45,0,0,1-9.68,4.94,115.24,115.24,0,0,0-11.64,6v30.88c12.24,5.35,31.18,6,41.88,6.37,2,.07,3.75.13,5.12.21,25.16,1.42,50.79,1.19,75.58,1,15.78-.14,32.08-.29,48.13,0l.86.2.3.09,7.28-.14c22.85.64,70.29,2,85.51,24.52,5.8,8.59,6.34,19.42,1.6,32.18-5.05,13.62-14.62,23.5-29.27,30.21l-.2.09a1.83,1.83,0,0,1-1.2.55h0a38.14,38.14,0,0,1-5.41,2.1l-1.17.38a3.67,3.67,0,0,0-.67.33,6.81,6.81,0,0,1-2.48.78,5,5,0,0,0-1.29.32c-10.5,3-22.61,4.91-38.36,6-1.65,0-2.9.06-4.15.11-1,0-2.05.09-3.2.1a5.44,5.44,0,0,1-.84.08l-1.12.24c-3.33.17-6.6.3-9.8.44-6.27.26-12.19.5-17.61.91-3.63.27-7.29.52-11,.77-12.34.84-25.1,1.71-37.59,3.42-5.79-.08-12.22.08-17.82,1.89a93.28,93.28,0,0,0-9,3.52c-4.34,1.25-8.35,2.64-12.18,4.14l-1.36.64c-2.45,1.12-4.84,2.13-7.22,3.08-1.85.91-3.67,1.85-5.43,2.84-14.46,8.17-25.07,23.36-25.8,37-.51,9.35,3.72,17.51,12.21,23.6,10.67,7.64,24.81,9,37.22,9.6,18,.93,36.42,1.11,54.23,1.29,6.34.07,12.67.13,19,.23l1.54,0c5.44.19,10.82.31,16.12.42a3.55,3.55,0,0,1,.47-.09l.58-.12,3.94.05c6.25.07,12.51.16,18.76.21l.49.05,1.94.24H1899.94V334.5C1901.92,334.6,1903.79,332.57,1901,332.16Zm-130.93-63a20.16,20.16,0,0,1-3.43,3.49Q1768.36,271,1770.05,269.19Z"/></svg>