<?xml version="1.0" encoding="utf-8"?>
<!-- Generator: Adobe Illustrator 22.0.1, SVG Export Plug-In . SVG Version: 6.00 Build 0)  -->
<svg version="1.1" id="Layer_1" xmlns="http://www.w3.org/2000/svg" xmlns:xlink="http://www.w3.org/1999/xlink" x="0px" y="0px"
	 viewBox="0 0 40 40" style="enable-background:new 0 0 40 40;" xml:space="preserve">
<style type="text/css">
	.st0{fill:#FFFFFF;}
	.st1{fill:#D12E26;}
</style>
<g>
	<g>
		<path class="st0" d="M36.4,16.5C37,6.4,29.5-0.3,20.6,0.3l0,0c-8.3,0-14.8,7.1-15.3,17.3c-1.1,10.8,4,20.5,12.3,20.6l0,0
			C26.4,37.5,35.3,27.3,36.4,16.5z"/>
	</g>
	<g id="XMLID_130_">
		<g id="XMLID_131_">
			<path id="XMLID_140_" class="st1" d="M20.8,12.6c2.2,0,2.4,0,3.3,0c0.8,0,1.2,0.2,1.5,0.3c0.4,0.1,0.6,0.3,0.9,0.6
				c0.3,0.3,0.5,0.6,0.6,0.9c0.1,0.3,0.2,0.7,0.3,1.5c0,0.9,0,1.1,0,3.3s0,2.4,0,3.3c0,0.8-0.2,1.2-0.3,1.5
				c-0.1,0.4-0.3,0.6-0.6,0.9c-0.3,0.3-0.6,0.5-0.9,0.6c-0.3,0.1-0.7,0.2-1.5,0.3c-0.9,0-1.1,0-3.3,0s-2.4,0-3.3,0
				c-0.8,0-1.2-0.2-1.5-0.3c-0.4-0.1-0.6-0.3-0.9-0.6c-0.3-0.3-0.5-0.6-0.6-0.9c-0.1-0.3-0.2-0.7-0.3-1.5c0-0.9,0-1.1,0-3.3
				s0-2.4,0-3.3c0-0.8,0.2-1.2,0.3-1.5c0.1-0.4,0.3-0.6,0.6-0.9c0.3-0.3,0.6-0.5,0.9-0.6c0.3-0.1,0.7-0.2,1.5-0.3
				C18.4,12.7,18.6,12.6,20.8,12.6 M20.8,11.2c-2.2,0-2.5,0-3.3,0c-0.9,0-1.5,0.2-2,0.4c-0.5,0.2-1,0.5-1.4,0.9
				c-0.5,0.5-0.7,0.9-0.9,1.4c-0.2,0.5-0.3,1.1-0.4,2c0,0.9,0,1.1,0,3.3c0,2.2,0,2.5,0,3.3c0,0.9,0.2,1.5,0.4,2
				c0.2,0.5,0.5,1,0.9,1.4c0.5,0.5,0.9,0.7,1.4,0.9c0.5,0.2,1.1,0.3,2,0.4c0.9,0,1.1,0,3.3,0c2.2,0,2.5,0,3.3,0c0.9,0,1.5-0.2,2-0.4
				c0.5-0.2,1-0.5,1.4-0.9c0.5-0.5,0.7-0.9,0.9-1.4c0.2-0.5,0.3-1.1,0.4-2c0-0.9,0-1.1,0-3.3c0-2.2,0-2.5,0-3.3c0-0.9-0.2-1.5-0.4-2
				c-0.2-0.5-0.5-1-0.9-1.4c-0.5-0.5-0.9-0.7-1.4-0.9c-0.5-0.2-1.1-0.3-2-0.4C23.3,11.2,23,11.2,20.8,11.2"/>
			<path id="XMLID_134_" class="st1" d="M20.8,15.1c-2.3,0-4.2,1.9-4.2,4.2c0,2.3,1.9,4.2,4.2,4.2c2.3,0,4.2-1.9,4.2-4.2
				C25,17,23.1,15.1,20.8,15.1 M20.8,22c-1.5,0-2.7-1.2-2.7-2.7c0-1.5,1.2-2.7,2.7-2.7c1.5,0,2.7,1.2,2.7,2.7
				C23.5,20.8,22.3,22,20.8,22"/>
			<path id="XMLID_132_" class="st1" d="M26.1,15c0,0.5-0.4,1-1,1c-0.5,0-1-0.4-1-1c0-0.5,0.4-1,1-1C25.7,14,26.1,14.4,26.1,15"/>
		</g>
	</g>
</g>
</svg>
