<svg id="Layer_1" data-name="Layer 1" xmlns="http://www.w3.org/2000/svg" xmlns:xlink="http://www.w3.org/1999/xlink" viewBox="0 0 1900 143.44"><defs><style>.cls-1{fill:none;}.cls-2{clip-path:url(#clip-path);}.cls-3{clip-path:url(#clip-path-2);}.cls-4{fill:#f9acac;}</style><clipPath id="clip-path"><rect class="cls-1" x="-3.41" y="-50.36" width="1906" height="331.74"/></clipPath><clipPath id="clip-path-2"><rect class="cls-1" x="-4.96" y="-913.21" width="1906.89" height="1045.21"/></clipPath></defs><title>CURVES2</title><g class="cls-2"><g class="cls-3"><path class="cls-4" d="M2210.41-584a8.21,8.21,0,0,0-4.06-5.17c-291.09-168.18-623.5-263.07-959.67-272.28-357.5-9.78-712.78,75.64-1070.23,37.84-178-18.83-354.59-69-503.42-171.09-5.72-3.93-13.46,1.32-13.46,7.73v789.92c0,16.63-.23,33.27,0,49.89,0,2-.48,4.67,0,6.66,2.75,11.52,20,18.31,29.27,24.26q25,16,51.09,30.25c129,70.51,273.26,107.71,418.55,124.75,332.84,39,664.4-32,997-36.41C1480-2,1803.24,70.61,2093.35,216.53q52.82,26.57,104,56.21a9,9,0,0,0,13.47-7.72V-581.45A9.3,9.3,0,0,0,2210.41-584Z"/></g></g></svg>