<?xml version="1.0" encoding="utf-8"?>
<!-- Generator: Adobe Illustrator 22.0.1, SVG Export Plug-In . SVG Version: 6.00 Build 0)  -->
<svg version="1.1" id="Layer_1" xmlns="http://www.w3.org/2000/svg" xmlns:xlink="http://www.w3.org/1999/xlink" x="0px" y="0px"
	 viewBox="0 0 40 40" style="enable-background:new 0 0 40 40;" xml:space="preserve">
<style type="text/css">
	.st0{fill:#FFFFFF;}
	.st1{fill:#D12E26;}
</style>
<g>
	<g>
		<path class="st0" d="M4,21.9C3.5,32,11,38.7,19.9,38.1l0,0c8.3,0,14.8-7.1,15.3-17.3c1.1-10.8-4-20.5-12.3-20.6l0,0
			C14,0.9,5.2,11.1,4,21.9z"/>
	</g>
	<path id="XMLID_146_" class="st1" d="M15.6,22.4c0.3,0.1,0.5,0,0.6-0.3c0.1-0.2,0.2-0.7,0.2-0.9c0.1-0.3,0-0.4-0.2-0.6
		c-0.4-0.5-0.7-1.2-0.7-2.2c0-2.8,2.1-5.3,5.5-5.3c3,0,4.6,1.8,4.6,4.3c0,3.2-1.4,5.9-3.5,5.9c-1.2,0-2-1-1.8-2.1
		c0.3-1.4,1-2.9,1-3.9c0-0.9-0.5-1.7-1.5-1.7c-1.2,0-2.1,1.2-2.1,2.9c0,1,0.4,1.8,0.4,1.8s-1.2,5.1-1.4,6c-0.4,1.8-0.1,4,0,4.2
		c0,0.1,0.2,0.2,0.3,0.1c0.1-0.1,1.5-1.9,2-3.6c0.1-0.5,0.8-3,0.8-3c0.4,0.7,1.5,1.4,2.7,1.4c3.6,0,6-3.3,6-7.6c0-3.3-2.8-6.4-7-6.4
		c-5.3,0-7.9,3.8-7.9,6.9C13.4,20,14.1,21.7,15.6,22.4z"/>
</g>
</svg>
