<svg xmlns="http://www.w3.org/2000/svg" viewBox="0 0 16.73 20.19"><defs><style>.cls-1{fill:#225ca2;}.cls-2{fill:#fff;}</style></defs><title>Asset 12</title><g id="Layer_2" data-name="Layer 2"><g id="Layer_1-2" data-name="Layer 1"><path class="cls-1" d="M0,11.53a7.82,7.82,0,0,0,8.44,8.64h0c4.45,0,7.88-3.81,8.18-9.2.6-5.75-2.11-11-6.55-11h0C5.35.33.61,5.78,0,11.53Z"/><path class="cls-2" d="M6.2,11.77a.21.21,0,0,0,.3-.15c0-.1.09-.36.12-.47s0-.2-.09-.33a1.7,1.7,0,0,1-.39-1.16A2.8,2.8,0,0,1,9.05,6.82a2.22,2.22,0,0,1,2.47,2.27c0,1.71-.76,3.15-1.88,3.15a.92.92,0,0,1-.93-1.14A13.54,13.54,0,0,0,9.23,9a.79.79,0,0,0-.8-.89c-.63,0-1.14.65-1.14,1.53a2.28,2.28,0,0,0,.19.94s-.65,2.74-.76,3.22a6.46,6.46,0,0,0,0,2.25.08.08,0,0,0,.14,0,6.2,6.2,0,0,0,1.07-1.93l.42-1.63a1.68,1.68,0,0,0,1.44.74c1.9,0,3.19-1.74,3.19-4.06A3.53,3.53,0,0,0,9.22,5.81,3.92,3.92,0,0,0,5,9.51,2.27,2.27,0,0,0,6.2,11.77Z"/></g></g></svg>