<?xml version="1.0" encoding="utf-8"?>
<!-- Generator: Adobe Illustrator 22.0.1, SVG Export Plug-In . SVG Version: 6.00 Build 0)  -->
<svg version="1.1" id="Layer_1" xmlns="http://www.w3.org/2000/svg" xmlns:xlink="http://www.w3.org/1999/xlink" x="0px" y="0px"
	 viewBox="0 0 40 40" style="enable-background:new 0 0 40 40;" xml:space="preserve">
<style type="text/css">
	.st0{fill:#FFFFFF;}
	.st1{fill:#D12E26;}
</style>
<g>
	<g>
		<path class="st0" d="M4.4,22.7c-0.6,10.1,7,16.8,15.8,16.2l0,0c8.3,0,14.8-7.1,15.3-17.3c1.1-10.8-4-20.5-12.3-20.6l0,0
			C14.4,1.7,5.5,11.9,4.4,22.7z"/>
	</g>
	<path id="XMLID_150_" class="st1" d="M12.2,27.1c1.6,1,3.4,1.6,5.4,1.6c6.6,0,10.3-5.6,10.1-10.6c0.7-0.5,1.3-1.1,1.8-1.8
		c-0.6,0.3-1.3,0.5-2,0.6c0.7-0.4,1.3-1.1,1.6-2c-0.7,0.4-1.4,0.7-2.3,0.9c-0.6-0.7-1.6-1.1-2.6-1.1c-2.3,0-4,2.1-3.5,4.4
		c-3-0.1-5.6-1.6-7.3-3.7c-0.9,1.6-0.5,3.7,1.1,4.7c-0.6,0-1.1-0.2-1.6-0.4c0,1.6,1.1,3.2,2.9,3.5c-0.5,0.1-1,0.2-1.6,0.1
		c0.5,1.4,1.8,2.4,3.3,2.5C16,26.8,14.1,27.3,12.2,27.1z"/>
</g>
</svg>
