<svg xmlns="http://www.w3.org/2000/svg" viewBox="0 0 16.73 20.19"><defs><style>.cls-1{fill:#225ca2;}.cls-2{fill:#fff;}</style></defs><title>Asset 10</title><g id="Layer_2" data-name="Layer 2"><g id="Layer_1-2" data-name="Layer 1"><path class="cls-1" d="M0,11.53a7.82,7.82,0,0,0,8.44,8.64h0c4.45,0,7.88-3.81,8.18-9.2.6-5.75-2.11-11-6.55-11h0C5.35.33.61,5.78,0,11.53Z"/><path class="cls-2" d="M4.22,13.87a5.45,5.45,0,0,0,2.91.85,5.36,5.36,0,0,0,5.39-5.64,3.81,3.81,0,0,0,.94-1,3.9,3.9,0,0,1-1.09.3,1.9,1.9,0,0,0,.84-1.05A4.1,4.1,0,0,1,12,7.81a1.88,1.88,0,0,0-1.38-.6A1.9,1.9,0,0,0,8.77,9.54a5.41,5.41,0,0,1-3.91-2,1.92,1.92,0,0,0,.59,2.54,1.94,1.94,0,0,1-.86-.24,1.89,1.89,0,0,0,1.52,1.88,1.74,1.74,0,0,1-.85,0A1.88,1.88,0,0,0,7,13.08,3.79,3.79,0,0,1,4.22,13.87Z"/></g></g></svg>