<svg id="Layer_1" data-name="Layer 1" xmlns="http://www.w3.org/2000/svg" xmlns:xlink="http://www.w3.org/1999/xlink" viewBox="0 0 1900 147.45"><defs><style>.cls-1{fill:none;}.cls-2{clip-path:url(#clip-path);}.cls-3{clip-path:url(#clip-path-2);}.cls-4{fill:#f9acac;}.cls-5{clip-path:url(#clip-path-3);}.cls-6{fill:#fff;}</style><clipPath id="clip-path"><rect class="cls-1" x="-3.41" y="1008.74" width="1906" height="331.74"/></clipPath><clipPath id="clip-path-2"><rect class="cls-1" x="-4.96" y="145.89" width="1906.89" height="1045.21"/></clipPath><clipPath id="clip-path-3"><rect class="cls-1" x="-1.01" y="-0.67" width="1899.6" height="148"/></clipPath></defs><title>CURVES2</title><g class="cls-2"><g class="cls-3"><path class="cls-4" d="M2210.41,475.09a8.23,8.23,0,0,0-4.06-5.17c-291.09-168.18-623.5-263.07-959.67-272.27-357.5-9.79-712.78,75.64-1070.23,37.84C-1.6,216.66-178.14,166.52-327,64.4c-5.72-3.93-13.46,1.31-13.46,7.72V862.05c0,16.62-.23,33.26,0,49.88,0,2-.48,4.68,0,6.67,2.75,11.52,20,18.3,29.27,24.25q25,16,51.09,30.25c129,70.51,273.26,107.72,418.55,124.76,332.84,39,664.4-32,997-36.42,324.45-4.33,647.73,68.27,937.84,214.2q52.82,26.55,104,56.21a9,9,0,0,0,13.47-7.73V477.65A9.36,9.36,0,0,0,2210.41,475.09Z"/></g></g><g class="cls-5"><path class="cls-6" d="M203.5,54.6C554,91.67,902.37,7.9,1252.92,17.5c222.89,6.1,444.09,50.63,652.22,129.8v-398H1.28V17.74C67.44,35.51,135.36,47.39,203.5,54.6Z"/></g></svg>